<svg xmlns="http://www.w3.org/2000/svg" viewBox="0 0 447 54"><path d="M43.92 2.4h8.27L30.14 51.88h-6.79L1.3 2.4h8.26l17.19 39.66L43.92 2.4zM79 2.4v49.48h-7.78V2.4H79zm37.48-.84c8.13 0 13.71 5.23 16.05 10.31l-5.8 3.33c-2.47-4.17-5.66-6.72-10.25-6.72s-7.85 2.68-7.85 6.36c0 3.46 2.2 5.58 6.94 7.35l3.46 1.28c9.83 3.6 14.84 7.84 14.84 15.26 0 9.12-8.69 14.21-17.11 14.21-8.62 0-15.55-5.16-17.67-12.15l6.08-3.12c1.77 4.53 5.58 8.2 11.59 8.2 4.95 0 9.06-2.61 9.06-7.07 0-4.73-3.18-6.64-8.84-8.76l-3.4-1.27c-7.42-2.76-12.65-6.51-12.65-14.21 0-7.49 6.78-13 15.55-13zm45.25.84v49.48h-7.78V2.4h7.78zm46.25-.71c13.29 0 25.45 10.47 25.45 25.45 0 14.99-12.16 25.45-25.45 25.45s-25.45-10.46-25.45-25.45c0-14.98 12.16-25.45 25.45-25.45zm0 43.55c9.12 0 17.38-7.5 17.38-18.1S217.1 9.05 207.98 9.05s-17.39 7.49-17.39 18.09 8.26 18.1 17.39 18.1zM287.8 2.4h7.78v49.48h-5.94L262 16.62v35.27h-7.78V2.4h6.01l27.57 35.34V2.4zm69.43 49.48l-4.53-10.46h-25.3l-4.52 10.46h-8.27L336.66 2.4h6.78l22.06 49.48h-8.27zm-27.01-16.89h19.65l-9.82-22.76-9.83 22.76zM417.18 2.4v7.21h-13.14v42.27h-7.78V9.61h-13.15V2.4h34.07zm28.22 0v49.48h-7.78V2.4h7.78zm0 0" fill="#fb7300" stroke="#fb7300" stroke-width="1" /></svg>